HIERARCHY
ROOT Hips
{
	OFFSET 0.00000 0.00000 0.00000
	CHANNELS 6 Xposition Yposition Zposition Zrotation Yrotation Xrotation 
	JOINT LHipJoint
	{
		OFFSET 0 0 0
		CHANNELS 3 Zrotation Yrotation Xrotation
		JOINT LeftUpLeg
		{
			OFFSET 1.37590 -1.78394 0.89329
			CHANNELS 3 Zrotation Yrotation Xrotation
			JOINT LeftLeg
			{
				OFFSET 2.47928 -6.81178 0.00000
				CHANNELS 3 Zrotation Yrotation Xrotation
				JOINT LeftFoot
				{
					OFFSET 2.63345 -7.23535 0.00000
					CHANNELS 3 Zrotation Yrotation Xrotation
					JOINT LeftToeBase
					{
						OFFSET 0.23938 -0.65768 2.27012
						CHANNELS 3 Zrotation Yrotation Xrotation
						End Site
						{
							OFFSET 0.00000 -0.00000 1.18363
						}
					}
				}
			}
		}
	}
	JOINT RHipJoint
	{
		OFFSET 0 0 0
		CHANNELS 3 Zrotation Yrotation Xrotation
		JOINT RightUpLeg
		{
			OFFSET -1.33617 -1.78394 0.89329
			CHANNELS 3 Zrotation Yrotation Xrotation
			JOINT RightLeg
			{
				OFFSET -2.56922 -7.05888 0.00000
				CHANNELS 3 Zrotation Yrotation Xrotation
				JOINT RightFoot
				{
					OFFSET -2.56568 -7.04915 0.00000
					CHANNELS 3 Zrotation Yrotation Xrotation
					JOINT RightToeBase
					{
						OFFSET -0.27533 -0.75646 2.18105
						CHANNELS 3 Zrotation Yrotation Xrotation
						End Site
						{
							OFFSET -0.00000 -0.00000 1.15233
						}
					}
				}
			}
		}
	}
	JOINT LowerBack
	{
		OFFSET 0 0 0
		CHANNELS 3 Zrotation Yrotation Xrotation
		JOINT Spine
		{
			OFFSET 0.06190 2.15152 -0.00935
			CHANNELS 3 Zrotation Yrotation Xrotation
			JOINT Spine1
			{
				OFFSET 0.06334 2.15332 0.00872
				CHANNELS 3 Zrotation Yrotation Xrotation
				JOINT Neck
				{
					OFFSET 0 0 0
					CHANNELS 3 Zrotation Yrotation Xrotation
					JOINT Neck1
					{
						OFFSET -0.04202 1.66908 0.23524
						CHANNELS 3 Zrotation Yrotation Xrotation
						JOINT Head
						{
							OFFSET 0.07510 1.69357 -0.24440
							CHANNELS 3 Zrotation Yrotation Xrotation
							End Site
							{
								OFFSET 0.02556 1.71719 -0.11000
							}
						}
					}
				}
				JOINT LeftShoulder
				{
					OFFSET 0 0 0
					CHANNELS 3 Zrotation Yrotation Xrotation
					JOINT LeftArm
					{
						OFFSET 3.67168 1.26306 -0.41342
						CHANNELS 3 Zrotation Yrotation Xrotation
						JOINT LeftForeArm
						{
							OFFSET 4.68510 -0.00000 -0.00000
							CHANNELS 3 Zrotation Yrotation Xrotation
							JOINT LeftHand
							{
								OFFSET 3.39626 -0.00000 -0.00000
								CHANNELS 3 Zrotation Yrotation Xrotation
								JOINT LeftFingerBase
								{
									OFFSET 0 0 0
									CHANNELS 3 Zrotation Yrotation Xrotation
									JOINT LeftHandIndex1
									{
										OFFSET 0.48608 -0.00000 -0.00000
										CHANNELS 3 Zrotation Yrotation Xrotation
										End Site
										{
											OFFSET 0.39189 -0.00000 -0.00000
										}
									}
								}
								JOINT LThumb
								{
									OFFSET 0 0 0
									CHANNELS 3 Zrotation Yrotation Xrotation
									End Site
									{
										OFFSET 0.39787 -0.00000 0.39787
									}
								}
							}
						}
					}
				}
				JOINT RightShoulder
				{
					OFFSET 0 0 0
					CHANNELS 3 Zrotation Yrotation Xrotation
					JOINT RightArm
					{
						OFFSET -3.04136 1.42992 -0.76390
						CHANNELS 3 Zrotation Yrotation Xrotation
						JOINT RightForeArm
						{
							OFFSET -5.55576 -0.00000 -0.00000
							CHANNELS 3 Zrotation Yrotation Xrotation
							JOINT RightHand
							{
								OFFSET -3.32774 -0.00000 -0.00000
								CHANNELS 3 Zrotation Yrotation Xrotation
								JOINT RightFingerBase
								{
									OFFSET 0 0 0
									CHANNELS 3 Zrotation Yrotation Xrotation
									JOINT RightHandIndex1
									{
										OFFSET -0.50763 -0.00000 -0.00000
										CHANNELS 3 Zrotation Yrotation Xrotation
										End Site
										{
											OFFSET -0.40926 -0.00000 -0.00000
										}
									}
								}
								JOINT RThumb
								{
									OFFSET 0 0 0
									CHANNELS 3 Zrotation Yrotation Xrotation
									End Site
									{
										OFFSET -0.41551 -0.00000 0.41551
									}
								}
							}
						}
					}
				}
			}
		}
	}
}
MOTION
Frames: 13
Frame Time: .0083333
-3.1360 18.0813 3.1789 -78.0388 -80.2114 83.5237 0.0000 0.0000 0.0000 -0.0860 -11.8364 -27.0238 1.0679 6.5697 18.4466 0.0610 2.7586 -6.5096 0.5690 -4.8311 -13.4274 0.0000 0.0000 0.0000 35.2427 2.4540 0.3803 -0.8282 -5.8060 16.2226 -0.5281 -6.7398 -17.8236 -0.0863 -1.8943 5.2136 7.7677 2.1619 -2.2838 0.8729 2.7962 -4.6773 -3.4429 1.1053 -3.2506 -9.2217 -2.8650 -7.0417 12.9102 -2.7911 -28.2677 6.1335 -1.9649 -7.0879 -0.0000 -0.0000 0.0000 55.9103 -72.8287 -88.1187 50.3664 -53.1422 -26.4671 -0.0000 0.0000 -24.4701 17.7636 37.1609 10.9524 -7.1250 0.0000 -0.0000 -22.4336 67.2234 -12.2492 -0.0000 -0.0000 0.0000 -69.5264 63.9802 -92.9662 -50.0976 53.0348 -26.2521 0.0000 0.0000 13.6934 -39.7403 -29.5891 22.3196 7.1250 -0.0000 -0.0000 -12.1854 -66.0406 6.2276
-3.2620 18.0689 3.1882 -78.3029 -80.2199 83.8745 0.0000 0.0000 0.0000 -0.0136 -12.0557 -26.9940 0.9768 6.2917 17.6333 0.0497 2.9446 -6.3154 0.5647 -4.8128 -13.3755 0.0000 0.0000 0.0000 35.2247 2.3779 0.5239 -0.8648 -5.9299 16.5811 -0.5520 -6.6648 -18.0310 -0.0640 -1.6323 4.4904 7.7579 2.2151 -2.3320 0.8402 2.8621 -4.6882 -3.4693 1.1386 -3.2259 -9.2078 -2.8609 -7.0676 12.9150 -2.7789 -28.1888 6.1270 -1.9575 -7.0581 -0.0000 -0.0000 0.0000 56.8043 -73.0501 -89.1902 50.9372 -53.3666 -26.9245 -0.0000 0.0000 -24.9779 17.7819 37.7172 11.1006 -7.1250 0.0000 -0.0000 -23.1166 67.7265 -12.9005 -0.0000 -0.0000 0.0000 -69.7565 64.3734 -93.3790 -50.4174 53.1625 -26.5079 0.0000 0.0000 14.3606 -40.3088 -29.6210 22.7480 7.1250 -0.0000 -0.0000 -13.0537 -66.2498 6.7405
-3.3889 18.0567 3.1985 -78.5637 -80.2328 84.2167 0.0000 0.0000 0.0000 0.0414 -12.2697 -26.9537 0.8989 6.0424 16.9074 0.0387 3.1150 -6.1072 0.5584 -4.7867 -13.3011 0.0000 0.0000 0.0000 35.1928 2.2996 0.6511 -0.9060 -6.0658 16.9754 -0.5742 -6.5866 -18.2144 -0.0444 -1.3595 3.7385 7.7450 2.2673 -2.3812 0.8078 2.9267 -4.6980 -3.4933 1.1714 -3.1999 -9.1928 -2.8568 -7.0970 12.9197 -2.7662 -28.0967 6.1194 -1.9496 -7.0234 0.0000 0.0000 0.0000 57.5874 -73.3047 -90.1462 51.5787 -53.6127 -27.4400 -0.0000 0.0000 -25.4907 17.8088 38.2597 11.2502 -7.1250 0.0000 -0.0000 -23.8049 68.2158 -13.5627 0.0000 0.0000 0.0000 -69.9525 64.8067 -93.7506 -50.7863 53.3078 -26.8034 0.0000 0.0000 15.0419 -40.8865 -29.6486 23.1855 7.1250 -0.0000 -0.0000 -13.9513 -66.4578 7.2781
-3.5168 18.0450 3.2097 -78.8212 -80.2499 84.5483 0.0000 0.0000 0.0000 0.0771 -12.4754 -26.9013 0.8328 5.8217 16.2679 0.0282 3.2615 -5.8830 0.5496 -4.7494 -13.1951 0.0000 0.0000 0.0000 35.1465 2.2176 0.7616 -0.9523 -6.2146 17.4083 -0.5944 -6.5033 -18.3705 -0.0280 -1.0799 2.9686 7.7298 2.3181 -2.4301 0.7762 2.9892 -4.7051 -3.5152 1.2035 -3.1714 -9.1745 -2.8529 -7.1335 12.9221 -2.7538 -27.9927 6.1096 -1.9416 -6.9835 0.0000 -0.0000 0.0000 58.2555 -73.5933 -90.9817 52.2959 -53.8805 -28.0184 -0.0000 0.0000 -26.0103 17.8323 38.7910 11.3942 -7.1250 0.0000 -0.0000 -24.5155 68.6900 -14.2452 0.0000 -0.0000 0.0000 -70.1110 65.2826 -94.0754 -51.2128 53.4731 -27.1457 0.0000 0.0000 15.7321 -41.4869 -29.6637 23.6369 7.1250 -0.0000 -0.0000 -14.9001 -66.6594 7.8510
-3.6456 18.0336 3.2218 -79.0777 -80.2711 84.8706 0.0000 0.0000 0.0000 0.0914 -12.6690 -26.8370 0.7775 5.6298 15.7141 0.0184 3.3802 -5.6425 0.5381 -4.7003 -13.0556 0.0000 0.0000 0.0000 35.0856 2.1316 0.8532 -1.0044 -6.3772 17.8830 -0.6123 -6.4152 -18.4959 -0.0151 -0.7928 2.1788 7.7125 2.3678 -2.4788 0.7451 3.0504 -4.7096 -3.5352 1.2352 -3.1405 -9.1593 -2.8495 -7.1742 12.9285 -2.7409 -27.8728 6.1007 -1.9329 -6.9376 -0.0000 0.0000 0.0000 58.8063 -73.9212 -91.6941 53.0938 -54.1696 -28.6641 -0.0000 0.0000 -26.5309 17.8578 39.2996 11.5334 -7.1250 0.0000 -0.0000 -25.2240 69.1410 -14.9283 -0.0000 0.0000 0.0000 -70.2221 65.8044 -94.3433 -51.7021 53.6593 -27.5394 0.0000 0.0000 16.4287 -42.0846 -29.6658 24.0832 7.1250 -0.0000 -0.0000 -15.8605 -66.8463 8.4351
-3.7754 18.0227 3.2348 -79.3319 -80.2960 85.1815 0.0000 0.0000 0.0000 0.0835 -12.8481 -26.7607 0.7321 5.4667 15.2445 0.0094 3.4727 -5.3851 0.5242 -4.6401 -12.8849 0.0000 0.0000 0.0000 35.0106 2.0419 0.9245 -1.0629 -6.5545 18.4022 -0.6274 -6.3239 -18.5874 -0.0060 -0.4982 1.3690 7.6935 2.4162 -2.5257 0.7149 3.1101 -4.7122 -3.5533 1.2663 -3.1090 -9.1425 -2.8472 -7.2182 12.9338 -2.7294 -27.7381 6.0903 -1.9244 -6.8860 0.0000 -0.0000 0.0000 59.2218 -74.2924 -92.2621 53.9768 -54.4787 -29.3814 -0.0000 0.0000 -27.0537 17.8674 39.7937 11.6577 -7.1250 0.0000 -0.0000 -25.9628 69.5703 -15.6320 0.0000 -0.0000 0.0000 -70.2770 66.3756 -94.5421 -52.2587 53.8668 -27.9884 0.0000 0.0000 17.1253 -42.6669 -29.6409 24.5054 7.1250 -0.0000 -0.0000 -16.8100 -66.9985 9.0101
-3.9061 18.0124 3.2488 -79.5916 -80.3269 85.4887 0.0000 0.0000 0.0000 0.0494 -13.0108 -26.6727 0.6957 5.3320 14.8579 0.0013 3.5391 -5.1128 0.5079 -4.5684 -12.6815 0.0000 0.0000 0.0000 34.9177 1.9489 0.9730 -1.1284 -6.7470 18.9680 -0.6390 -6.2296 -18.6396 -0.0009 -0.1987 0.5459 7.6715 2.4640 -2.5717 0.6849 3.1690 -4.7120 -3.5695 1.2973 -3.0753 -9.1254 -2.8457 -7.2636 12.9396 -2.7187 -27.5902 6.0792 -1.9159 -6.8298 -0.0000 -0.0000 0.0000 59.4889 -74.7097 -92.6700 54.9502 -54.8068 -30.1753 -0.0000 0.0000 -27.5803 17.8758 40.2859 11.7799 -7.1250 0.0000 -0.0000 -26.7328 69.9933 -16.3661 -0.0000 -0.0000 0.0000 -70.2633 66.9995 -94.6579 -52.8922 54.0974 -28.5008 0.0000 0.0000 17.8189 -43.2302 -29.5939 24.9029 7.1250 -0.0000 -0.0000 -17.7394 -67.1201 9.5699
-4.0377 18.0026 3.2638 -79.8524 -80.3645 85.7866 0.0000 0.0000 0.0000 -0.0130 -13.1561 -26.5706 0.6673 5.2242 14.5493 -0.0057 3.5760 -4.8285 0.4899 -4.4877 -12.4530 0.0000 0.0000 0.0000 34.8065 1.8526 0.9981 -1.2015 -6.9546 19.5811 -0.6463 -6.1365 -18.6466 -0.0003 0.1052 -0.2890 7.6449 2.5108 -2.6166 0.6553 3.2267 -4.7083 -3.5825 1.3282 -3.0388 -9.1072 -2.8457 -7.3138 12.9446 -2.7098 -27.4261 6.0667 -1.9078 -6.7673 -0.0000 0.0000 0.0000 59.5947 -75.1739 -92.9037 56.0141 -55.1507 -31.0466 -0.0000 0.0000 -28.1120 17.8963 40.7740 11.9087 -7.1250 0.0000 -0.0000 -27.5164 70.4122 -17.1211 -0.0000 0.0000 0.0000 -70.1696 67.6770 -94.6761 -53.6069 54.3505 -29.0806 0.0000 0.0000 18.5035 -43.7837 -29.5387 25.2913 7.1250 -0.0000 -0.0000 -18.6627 -67.2293 10.1283
-4.1703 17.9936 3.2796 -80.1194 -80.4102 86.0807 0.0000 0.0000 0.0000 -0.1053 -13.2822 -26.4557 0.6464 5.1432 14.3173 -0.0115 3.5838 -4.5352 0.4702 -4.3981 -12.1995 0.0000 0.0000 0.0000 34.6758 1.7552 0.9977 -1.2831 -7.1782 20.2443 -0.6488 -6.0445 -18.6042 -0.0039 0.4058 -1.1149 7.6128 2.5563 -2.6599 0.6259 3.2829 -4.7017 -3.5921 1.3586 -3.0007 -9.0888 -2.8467 -7.3685 12.9497 -2.7020 -27.2451 6.0533 -1.8996 -6.6983 0.0000 0.0000 0.0000 59.5099 -75.6882 -92.9337 57.1736 -55.5085 -32.0002 -0.0000 0.0000 -28.6426 17.9425 41.2533 12.0526 -7.1250 0.0000 -0.0000 -28.2908 70.8281 -17.8824 0.0000 0.0000 0.0000 -69.9887 68.4108 -94.5883 -54.4091 54.6260 -29.7336 0.0000 0.0000 19.1731 -44.3351 -29.4789 25.6788 7.1250 -0.0000 -0.0000 -19.5924 -67.3329 10.6943
-4.3037 17.9853 3.2963 -80.3914 -80.4644 86.3697 0.0000 0.0000 0.0000 -0.2286 -13.3895 -26.3272 0.6322 5.0875 14.1584 -0.0161 3.5630 -4.2363 0.4491 -4.2996 -11.9212 0.0000 0.0000 0.0000 34.5246 1.6569 0.9702 -1.3739 -7.4177 20.9588 -0.6459 -5.9552 -18.5059 -0.0116 0.6967 -1.9145 7.5746 2.6005 -2.7024 0.5962 3.3375 -4.6923 -3.5986 1.3887 -2.9604 -9.0696 -2.8488 -7.4243 12.9554 -2.6954 -27.0482 6.0391 -1.8917 -6.6240 -0.0000 0.0000 0.0000 59.2023 -76.2543 -92.7239 58.4284 -55.8764 -33.0367 -0.0000 0.0000 -29.1659 17.9925 41.7204 12.1961 -7.1250 0.0000 -0.0000 -29.0746 71.2306 -18.6557 -0.0000 0.0000 0.0000 -69.7026 69.2032 -94.3751 -55.3039 54.9228 -30.4646 0.0000 0.0000 19.8228 -44.8784 -29.4170 26.0624 7.1250 -0.0000 -0.0000 -20.5188 -67.4318 11.2628
-4.4379 17.9777 3.3139 -80.6666 -80.5287 86.6518 0.0000 0.0000 0.0000 -0.3845 -13.4781 -26.1847 0.6243 5.0561 14.0686 -0.0195 3.5146 -3.9349 0.4268 -4.1928 -11.6197 0.0000 0.0000 0.0000 34.3517 1.5590 0.9141 -1.4746 -7.6732 21.7257 -0.6369 -5.8735 -18.3478 -0.0226 0.9697 -2.6655 7.5289 2.6431 -2.7440 0.5661 3.3900 -4.6790 -3.6012 1.4182 -2.9172 -9.0493 -2.8523 -7.4862 12.9604 -2.6908 -26.8338 6.0235 -1.8841 -6.5427 0.0000 0.0000 0.0000 58.6325 -76.8712 -92.2333 59.7823 -56.2516 -34.1600 -0.0000 0.0000 -29.6796 18.0426 42.1648 12.3341 -7.1250 0.0000 -0.0000 -29.8517 71.6102 -19.4234 0.0000 0.0000 0.0000 -69.2978 70.0550 -94.0229 -56.2920 55.2381 -31.2748 0.0000 0.0000 20.4541 -45.4061 -29.3445 26.4299 7.1250 -0.0000 -0.0000 -21.4260 -67.5138 11.8185
-4.5729 17.9708 3.3323 -80.9437 -80.6037 86.9258 0.0000 0.0000 0.0000 -0.5734 -13.5480 -26.0276 0.6221 5.0473 14.0436 -0.0217 3.4385 -3.6333 0.4030 -4.0757 -11.2896 0.0000 0.0000 0.0000 34.1566 1.4625 0.8279 -1.5860 -7.9445 22.5458 -0.6211 -5.8068 -18.1261 -0.0357 1.2197 -3.3536 7.4746 2.6837 -2.7847 0.5355 3.4401 -4.6621 -3.5995 1.4470 -2.8715 -9.0277 -2.8574 -7.5547 12.9654 -2.6881 -26.5995 6.0066 -1.8769 -6.4539 0.0000 -0.0000 0.0000 57.7465 -77.5403 -91.4059 61.2377 -56.6308 -35.3729 -0.0000 0.0000 -30.1826 18.0855 42.5829 12.4607 -7.1250 0.0000 -0.0000 -30.6196 71.9620 -20.1793 0.0000 -0.0000 0.0000 -68.7496 70.9675 -93.5056 -57.3765 55.5693 -32.1675 0.0000 0.0000 21.0603 -45.9089 -29.2628 26.7743 7.1250 -0.0000 -0.0000 -22.2952 -67.5772 12.3487
-4.7086 17.9648 3.3515 -81.2168 -80.6907 87.1851 0.0000 0.0000 0.0000 -0.7973 -13.5981 -25.8546 0.6251 5.0594 14.0781 -0.0228 3.3354 -3.3336 0.3783 -3.9502 -10.9366 0.0000 0.0000 0.0000 33.9384 1.3681 0.7116 -1.7089 -8.2315 23.4194 -0.5985 -5.7663 -17.8466 -0.0512 1.4596 -4.0145 7.4100 2.7220 -2.8244 0.5038 3.4873 -4.6411 -3.5930 1.4749 -2.8229 -9.0062 -2.8639 -7.6274 12.9718 -2.6870 -26.3472 5.9893 -1.8698 -6.3584 0.0000 0.0000 0.0000 56.4701 -78.2597 -90.1637 62.7923 -57.0092 -36.6740 -0.0000 0.0000 -30.6717 18.1149 42.9708 12.5705 -7.1250 0.0000 -0.0000 -31.3730 72.2812 -20.9150 0.0000 0.0000 0.0000 -68.0268 71.9414 -92.7905 -58.5587 55.9135 -33.1446 0.0000 0.0000 21.6339 -46.3811 -29.1719 27.0904 7.1250 -0.0000 -0.0000 -23.1145 -67.6207 12.8442
